<svg xmlns="http://www.w3.org/2000/svg" xmlns:xlink="http://www.w3.org/1999/xlink" x="0px" y="0px" viewBox="0 0 50 60" style="enable-background:new 0 0 50 60;" xml:space="preserve"><g>	<path d="M41,33c-0.6,0-1,0.4-1,1v18H24V8h16v18c0,0.6,0.4,1,1,1s1-0.4,1-1V7c0-0.6-0.4-1-1-1H24V1c0-0.3-0.1-0.6-0.4-0.8  C23.4,0,23,0,22.7,0l-22,6C0.3,6.2,0,6.5,0,7v46c0,0.5,0.3,0.8,0.7,1l22,6c0.1,0,0.2,0,0.3,0c0.2,0,0.4-0.1,0.6-0.2  c0.2-0.2,0.4-0.5,0.4-0.8v-5h17c0.6,0,1-0.4,1-1V34C42,33.4,41.6,33,41,33z M22,57.7L2,52.2V7.8l20-5.5V7v46V57.7z"></path>	<path d="M49.9,30.4c0.1-0.2,0.1-0.5,0-0.8c-0.1-0.1-0.1-0.2-0.2-0.3l-4-4c-0.4-0.4-1-0.4-1.4,0s-0.4,1,0,1.4l2.3,2.3H31  c-0.6,0-1,0.4-1,1v6c0,0.6,0.4,1,1,1s1-0.4,1-1v-5h14.6l-2.3,2.3c-0.4,0.4-0.4,1,0,1.4c0.2,0.2,0.5,0.3,0.7,0.3s0.5-0.1,0.7-0.3  l4-4C49.8,30.6,49.9,30.5,49.9,30.4z"></path>	<path d="M17,25c-1.7,0-3,1.8-3,4s1.3,4,3,4s3-1.8,3-4S18.7,25,17,25z M17,31c-0.4,0-1-0.8-1-2s0.6-2,1-2s1,0.8,1,2S17.4,31,17,31z"></path></g></svg>