<svg xmlns="http://www.w3.org/2000/svg" xmlns:xlink="http://www.w3.org/1999/xlink" width="33.6" height="21.213" viewBox="0 0 33.6 21.213"><defs><clipPath id="am6-clip-path"><rect data-name="Rectangle 40020" width="33.6" height="21.213" transform="translate(0 0)" fill="currentcolor"></rect></clipPath></defs><g data-name="Group 127750" transform="translate(0 0)"><g data-name="Group 127749" transform="translate(0 0)" clip-path="url(#am6-clip-path)"><path data-name="Path 58242" d="M58.73,23.341a.7.7,0,0,1-.494-.205,7.024,7.024,0,0,0-9.807,0,.7.7,0,0,1-.99-.988,8.422,8.422,0,0,1,11.785,0,.7.7,0,0,1-.494,1.193" transform="translate(-36.036 -15.062)" fill="currentcolor"></path><path data-name="Path 58243" d="M64.953,35.7a.7.7,0,0,1-.557-.275,2.611,2.611,0,0,0-4.073,0,.7.7,0,1,1-1.112-.848,4.009,4.009,0,0,1,6.3,0,.7.7,0,0,1-.555,1.123" transform="translate(-45.064 -25.212)" fill="currentcolor"></path><path data-name="Path 58244" d="M66.992,47.747a1.778,1.778,0,1,1,1.853-1.777,1.818,1.818,0,0,1-1.853,1.777m0-2.155a.384.384,0,1,0,.454.378.422.422,0,0,0-.454-.378" transform="translate(-49.697 -33.717)" fill="currentcolor"></path><path data-name="Path 58245" d="M40.225,17.973a.7.7,0,0,1-.7-.7V2.115a.718.718,0,0,0-.717-.717H15.155a.718.718,0,0,0-.717.717V17.274a.7.7,0,0,1-1.4,0V2.115A2.118,2.118,0,0,1,15.155,0H38.809a2.118,2.118,0,0,1,2.115,2.115V17.274a.7.7,0,0,1-.7.7" transform="translate(-9.948 0)" fill="currentcolor"></path><path data-name="Path 58246" d="M44.112,23.878H24.533a1.817,1.817,0,0,1-1.872-1.752V11.237a1.817,1.817,0,0,1,1.872-1.751h19.58a1.817,1.817,0,0,1,1.872,1.751V22.126a1.817,1.817,0,0,1-1.872,1.752M24.533,10.885c-.256,0-.473.162-.473.353V22.126c0,.191.217.353.473.353h19.58c.257,0,.474-.162.474-.353V11.237c0-.191-.217-.353-.474-.353Z" transform="translate(-17.289 -7.237)" fill="currentcolor"></path><path data-name="Path 58247" d="M31.728,77.739H1.872A1.817,1.817,0,0,1,0,75.988v-.144a1.817,1.817,0,0,1,1.872-1.752H31.728A1.816,1.816,0,0,1,33.6,75.844v.144a1.816,1.816,0,0,1-1.871,1.752M1.872,75.49c-.257,0-.474.162-.474.353v.144c0,.192.217.353.474.353H31.728c.256,0,.473-.161.473-.353v-.144c0-.192-.217-.353-.473-.353Z" transform="translate(0 -56.526)" fill="currentcolor"></path></g></g></svg>