<svg xmlns="http://www.w3.org/2000/svg" xmlns:xlink="http://www.w3.org/1999/xlink" width="28.657" height="25" viewBox="0 0 28.657 25"><defs><clipPath id="am7-clip-path"><rect data-name="Rectangle 40021" width="28.657" height="25" fill="currentcolor"></rect></clipPath></defs><g data-name="Group 127753" transform="translate(0 -7)"><g data-name="Group 127752" transform="translate(0 7)" clip-path="url(#am7-clip-path)"><path data-name="Path 58248" d="M17.1,64.72H4.6a4.607,4.607,0,0,1-4.6-4.6V40.952H21.7V60.118a4.606,4.606,0,0,1-4.6,4.6M1.578,42.53V60.118A3.027,3.027,0,0,0,4.6,63.142H17.1a3.027,3.027,0,0,0,3.023-3.023V42.53Z" transform="translate(0 -39.72)" fill="currentcolor"></path><path data-name="Path 58249" d="M18.07,70.528H15.8a3.212,3.212,0,0,1-3.209-3.208v-4.55A3.212,3.212,0,0,1,15.8,59.561H18.07a3.212,3.212,0,0,1,3.209,3.208v4.55a3.212,3.212,0,0,1-3.209,3.208M15.8,61.139a1.632,1.632,0,0,0-1.631,1.63v4.55A1.632,1.632,0,0,0,15.8,68.95H18.07A1.632,1.632,0,0,0,19.7,67.32v-4.55a1.632,1.632,0,0,0-1.631-1.63Z" transform="translate(-9.221 -53.351)" fill="currentcolor"></path><path data-name="Path 58250" d="M26.669,47.895a.789.789,0,0,1-.789-.789V42.269a.789.789,0,1,1,1.578,0v4.837a.789.789,0,0,1-.789.789" transform="translate(-18.957 -40.106)" fill="currentcolor"></path><path data-name="Path 58254" d="M83.905,73.049h-.9a.789.789,0,0,1,0-1.578h.9a3.183,3.183,0,0,0,2.411-.863,4.594,4.594,0,0,0,.885-3.47,3.309,3.309,0,0,0-3.3-3.336h-1.02a.789.789,0,1,1,0-1.578h1.02A4.878,4.878,0,0,1,88.777,67.1a6,6,0,0,1-1.317,4.6,4.748,4.748,0,0,1-3.555,1.354" transform="translate(-60.135 -55.302)" fill="currentcolor"></path></g></g></svg>