<svg xmlns="http://www.w3.org/2000/svg" xmlns:xlink="http://www.w3.org/1999/xlink" data-name="Group 127744" width="33.399" height="25" viewBox="0 0 33.399 25"><defs><clipPath id="am4-clip-path"><rect data-name="Rectangle 40018" width="33.399" height="25" transform="translate(0 0)" fill="currentcolor"></rect></clipPath></defs><g data-name="Group 127743" transform="translate(0 0)" clip-path="url(#am4-clip-path)"><path data-name="Path 58233" d="M33.193,8.527a.569.569,0,0,0-.37-.232,14.652,14.652,0,0,0-2.434-.206,14.357,14.357,0,0,0-3.556.447,14.53,14.53,0,0,0-.615-5.963A.571.571,0,0,0,25.5,2.2,14.381,14.381,0,0,0,20.944,4.63,11.61,11.61,0,0,0,19.08,2.195L17.052.167a.571.571,0,0,0-.807,0L14.218,2.195A11.6,11.6,0,0,0,12.354,4.63,14.382,14.382,0,0,0,7.8,2.2a.571.571,0,0,0-.718.369,14.554,14.554,0,0,0-.615,5.963,14.356,14.356,0,0,0-3.556-.446,14.693,14.693,0,0,0-2.434.206.57.57,0,0,0-.468.658A14.482,14.482,0,0,0,16.649,20.837a14.66,14.66,0,0,0,2.379.2A14.5,14.5,0,0,0,33.29,8.953a.572.572,0,0,0-.1-.426M25.3,3.48A13.35,13.35,0,0,1,19.212,18.5,11.648,11.648,0,0,0,21.471,5.669,13.2,13.2,0,0,1,25.3,3.48M15.025,3l1.624-1.624L18.273,3a10.5,10.5,0,0,1,0,14.831l-1.624,1.624-1.624-1.624A10.5,10.5,0,0,1,15.025,3M8,3.481a13.179,13.179,0,0,1,3.826,2.188A11.648,11.648,0,0,0,14.086,18.5,13.35,13.35,0,0,1,8,3.481M1.242,9.335a13.241,13.241,0,0,1,5.41.435,14.451,14.451,0,0,0,7.584,10.119A13.381,13.381,0,0,1,1.242,9.335M26.733,17.42a13.254,13.254,0,0,1-7.676,2.471A14.446,14.446,0,0,0,26.645,9.77a13.245,13.245,0,0,1,5.411-.435,13.259,13.259,0,0,1-5.323,8.085" transform="translate(0.001 0)" fill="currentcolor"></path><path data-name="Path 58234" d="M17.739,79.46c-8.028,0-16.561-1.871-16.561-5.339a2.981,2.981,0,0,1,1.547-2.38.7.7,0,1,1,.791,1.144c-.432.3-.947.756-.947,1.235,0,1.648,5.771,3.948,15.169,3.948s15.169-2.3,15.169-3.948c0-.477-.517-1.027-1.456-1.55a.7.7,0,0,1,.677-1.216c1.439.8,2.17,1.732,2.17,2.765,0,3.468-8.532,5.339-16.56,5.339" transform="translate(-0.9 -54.46)" fill="currentcolor"></path></g></svg>