<svg xmlns="http://www.w3.org/2000/svg" xmlns:xlink="http://www.w3.org/1999/xlink" width="33.829" height="25" viewBox="0 0 33.829 25"><defs><clipPath id="am2-clip-path"><rect data-name="Rectangle 40016" width="33.829" height="25" fill="currentcolor"></rect></clipPath></defs><g data-name="Group 127737" transform="translate(0 0)"><g data-name="Group 127736" transform="translate(0 0)" clip-path="url(#am2-clip-path)"><path data-name="Path 58215" d="M37.507,81.453H6.517v-.74a9.851,9.851,0,0,1,.667-3.079,14.032,14.032,0,0,0,.489-1.7l.116-.6H36.235l.117.6a14.07,14.07,0,0,0,.488,1.694,9.843,9.843,0,0,1,.668,3.081ZM8.063,79.975h27.9a13.131,13.131,0,0,0-.525-1.875c-.139-.418-.281-.846-.4-1.279H8.985c-.115.433-.258.862-.4,1.28a13.111,13.111,0,0,0-.525,1.873" transform="translate(-4.883 -56.453)" fill="currentcolor"></path><path data-name="Path 58216" d="M37.733,65.461H9.192a.739.739,0,1,1,0-1.479H37.733a.739.739,0,0,1,0,1.479" transform="translate(-6.333 -47.941)" fill="currentcolor"></path><path data-name="Path 58217" d="M43.6,30a.739.739,0,0,1-.739-.739,10.579,10.579,0,1,0-21.157,0,.739.739,0,0,1-1.479,0,12.058,12.058,0,1,1,24.115,0A.739.739,0,0,1,43.6,30" transform="translate(-15.157 -12.889)" fill="currentcolor"></path><path data-name="Path 58218" d="M35.255,38.323a.747.747,0,0,1-.1-.006.739.739,0,0,1-.637-.829c.538-4.124,4.51-6.068,4.679-6.148a.739.739,0,0,1,.639,1.334c-.058.028-3.42,1.7-3.852,5.006a.739.739,0,0,1-.732.644" transform="translate(-25.862 -23.428)" fill="currentcolor"></path><path data-name="Path 58219" d="M59.5,5H56.057a1.806,1.806,0,1,1,0-3.611H59.5A1.806,1.806,0,0,1,59.5,5M56.057,2.868a.327.327,0,1,0,0,.654H59.5a.327.327,0,0,0,0-.654Z" transform="translate(-40.65 -1.041)" fill="currentcolor"></path><path data-name="Path 58220" d="M115.286,25.642a.739.739,0,0,1-.462-1.318l3.633-2.9a.739.739,0,1,1,.922,1.156l-3.633,2.9a.736.736,0,0,1-.46.161" transform="translate(-85.828 -15.935)" fill="currentcolor"></path><path data-name="Path 58221" d="M98.239,5.665a.74.74,0,0,1-.665-1.06L99.59.419a.739.739,0,0,1,1.332.642L98.905,5.246a.739.739,0,0,1-.667.419" transform="translate(-73.056 0)" fill="currentcolor"></path><path data-name="Path 58222" d="M37.3,69.922a.739.739,0,0,1-.739-.739V66.936a.739.739,0,1,1,1.479,0v2.247a.739.739,0,0,1-.739.739" transform="translate(-27.396 -49.6)" fill="currentcolor"></path><path data-name="Path 58223" d="M95.016,69.922a.739.739,0,0,1-.739-.739V66.936a.739.739,0,1,1,1.479,0v2.247a.739.739,0,0,1-.739.739" transform="translate(-70.641 -49.6)" fill="currentcolor"></path><path data-name="Path 58224" d="M4.372,25.642a.737.737,0,0,1-.461-.161l-3.633-2.9A.739.739,0,1,1,1.2,21.429l3.633,2.9a.739.739,0,0,1-.462,1.318" transform="translate(0 -15.935)" fill="currentcolor"></path><path data-name="Path 58225" d="M26.25,5.665a.739.739,0,0,1-.667-.419L23.567,1.061A.739.739,0,0,1,24.9.419L26.915,4.6a.74.74,0,0,1-.665,1.06" transform="translate(-17.604 0)" fill="currentcolor"></path></g></g></svg>