<svg xmlns="http://www.w3.org/2000/svg" xmlns:xlink="http://www.w3.org/1999/xlink" data-name="Group 127741" width="30.149" height="25" viewBox="0 0 30.149 25"><defs><clipPath id="am3-clip-path"><rect data-name="Rectangle 40017" width="30.149" height="25" fill="currentcolor"></rect></clipPath></defs><g data-name="Group 127740" clip-path="url(#am3-clip-path)"><path data-name="Path 58226" d="M32.881,27.86h-.074a.92.92,0,0,1-.722-.32c-.764-1-4.711-5.4-4.751-5.442l-5.071-5.754a.68.68,0,1,1,1.019-.9l5.067,5.749c.146.163,3.386,3.771,4.548,5.186,1.359-1.528,4.53-5.145,4.565-5.184l5.068-5.751a.679.679,0,1,1,1.019.9l-5.067,5.749c-.035.04-3.673,4.189-4.832,5.484a.986.986,0,0,1-.77.284" transform="translate(-17.003 -11.708)" fill="currentcolor"></path><path data-name="Path 58227" d="M66.661,76.069a.679.679,0,0,1-.68-.68V67.125a.68.68,0,1,1,1.359,0V75.39a.679.679,0,0,1-.68.68" transform="translate(-50.777 -51.134)" fill="currentcolor"></path><path data-name="Path 58228" d="M53.743,103.955H42.449a.68.68,0,0,1,0-1.359H53.743a.68.68,0,0,1,0,1.359" transform="translate(-32.144 -78.955)" fill="currentcolor"></path><path data-name="Path 58229" d="M96.155,9.047a4.517,4.517,0,1,1,4.517-4.517,4.522,4.522,0,0,1-4.517,4.517m0-7.674a3.157,3.157,0,1,0,3.158,3.158,3.161,3.161,0,0,0-3.158-3.158" transform="translate(-70.522 -0.011)" fill="currentcolor"></path><path data-name="Path 58230" d="M50.931,32.57H38.5a.68.68,0,1,1,0-1.359H50.931a.68.68,0,1,1,0,1.359" transform="translate(-29.103 -24.019)" fill="currentcolor"></path><path data-name="Path 58231" d="M39.9,16.268H24.166a.68.68,0,0,1,0-1.359H39.9a.68.68,0,0,1,0,1.359" transform="translate(-18.074 -11.474)" fill="currentcolor"></path><path data-name="Path 58232" d="M14.562,10.591S8.354,3.87,6.123,1.434C4.672,2.493,1.135,5.257,1.1,5.286A.68.68,0,0,1,.261,4.215C.423,4.088,4.245,1.1,5.545.175A1.145,1.145,0,0,1,6.919.293C8.943,2.5,15.56,9.669,15.56,9.669Z" transform="translate(0 0)" fill="currentcolor"></path></g></svg>