<svg xmlns="http://www.w3.org/2000/svg" xmlns:xlink="http://www.w3.org/1999/xlink" data-name="Group 127747" width="30.704" height="25" viewBox="0 0 30.704 25"><defs><clipPath id="am5-clip-path"><rect data-name="Rectangle 40019" width="30.704" height="25" fill="currentcolor"></rect></clipPath></defs><g data-name="Group 127746" clip-path="url(#am5-clip-path)"><path data-name="Path 58235" d="M6.065,95.819A1.6,1.6,0,0,1,4.93,93.08l2.385-2.347a.639.639,0,1,1,.9.91L5.83,93.987a.327.327,0,0,0,.466.458l3.861-3.861a.639.639,0,1,1,.9.9L7.2,95.349a1.594,1.594,0,0,1-1.134.47" transform="translate(-3.495 -70.819)" fill="currentcolor"></path><path data-name="Path 58236" d="M86.982,95.461a1.594,1.594,0,0,1-1.134-.47L81.986,91.13a.639.639,0,0,1,.9-.9l3.861,3.861a.327.327,0,0,0,.462-.462l-2.544-2.6a.639.639,0,0,1,.913-.893l2.539,2.595a1.6,1.6,0,0,1-1.139,2.733" transform="translate(-64.083 -70.462)" fill="currentcolor"></path><path data-name="Path 58237" d="M20.572,59.7H2.087a2.087,2.087,0,1,1,0-4.174H19.9l7.5-5.4a2.087,2.087,0,1,1,2.439,3.387L21.791,59.3a2.077,2.077,0,0,1-1.219.393M2.087,56.8a.809.809,0,1,0,0,1.618H20.572a.806.806,0,0,0,.473-.153l8.044-5.792a.809.809,0,0,0,.184-1.13.83.83,0,0,0-1.129-.184L20.311,56.8Z" transform="translate(0 -38.959)" fill="currentcolor"></path><path data-name="Path 58238" d="M17.254,11l-.075-.634a8.685,8.685,0,0,1,2.211-6.809A10.642,10.642,0,0,1,26.172.078,11.365,11.365,0,0,1,27.5,0c5.058,0,9.277,3.436,9.814,7.992l.075.635ZM27.5,1.278a10.074,10.074,0,0,0-1.174.069A9.369,9.369,0,0,0,20.35,4.4,7.489,7.489,0,0,0,18.4,9.578L35.938,7.51c-.76-3.595-4.272-6.233-8.442-6.233" transform="translate(-13.413)" fill="currentcolor"></path><path data-name="Path 58239" d="M38.559,12.323a.639.639,0,0,1-.638-.623c-.142-5.91,2.565-8.027,2.681-8.115A.639.639,0,0,1,41.376,4.6c-.039.032-2.3,1.888-2.178,7.068a.638.638,0,0,1-.623.654h-.016" transform="translate(-29.703 -2.707)" fill="currentcolor"></path><path data-name="Path 58240" d="M58.865,19.371a.638.638,0,0,1-.632-.556L56.121,2.7a.639.639,0,0,1,1.267-.166L59.5,18.649a.639.639,0,0,1-.634.722" transform="translate(-43.962 -1.548)" fill="currentcolor"></path><path data-name="Path 58241" d="M69.4,10.422a.638.638,0,0,1-.63-.542C67.98,4.74,65.41,3.318,65.384,3.3a.639.639,0,0,1,.585-1.136c.129.066,3.166,1.676,4.062,7.519a.638.638,0,0,1-.534.728.6.6,0,0,1-.1.008" transform="translate(-50.956 -1.644)" fill="currentcolor"></path></g></svg>