<svg xmlns="http://www.w3.org/2000/svg" xmlns:xlink="http://www.w3.org/1999/xlink" x="0px" y="0px" viewBox="0 0 19.1 15" style="enable-background:new 0 0 19.1 15;" xml:space="preserve"><g transform="translate(19.093) rotate(90)">	<g>		<defs>			<rect x="-2" y="2" width="19.1" height="15"></rect>		</defs>		<clipPath>			<use xlink:href="#SVGID_1_" style="overflow:visible;"></use>		</clipPath>		<g transform="translate(0)">			<path d="M1.5,0.2C1.1-0.1,0.4,0,0.2,0.5C0,0.8,0,1.2,0.2,1.5l4.8,7.4c0.2,0.4,0.2,0.9,0,1.2    l-4.8,7.4C-0.1,18,0,18.6,0.5,18.9c0.3,0.2,0.7,0.2,1.1,0l12.8-8.1c0.7-0.4,0.9-1.4,0.5-2.1c-0.1-0.2-0.3-0.3-0.5-0.5L1.5,0.2z"></path>		</g>	</g></g></svg>