<svg xmlns="http://www.w3.org/2000/svg" xmlns:xlink="http://www.w3.org/1999/xlink" x="0px" y="0px"
	 viewBox="0 0 29 50" style="enable-background:new 0 0 29 50;" xml:space="preserve">
<style type="text/css">
	.favicon{fill:#9B804E;}
</style>
<path d="M1.4,0C10,4.9,9.7,14.4,9.2,24.5h12.1c0,0,0.1,0,0.1-0.1c0,0,0.1-0.1,0.1-0.2v-3.1c0-0.7,0-1.3,0-1.7s0-0.8,0-1.2
	s0-0.6,0-0.8s0-0.4,0-0.6c0-0.3-0.1-0.6-0.1-0.9c-0.1-0.2-0.2-0.4-0.4-0.6C20.6,15.1,20.3,15,20,15c-0.2,0-0.4-0.1-0.5-0.1
	c-0.2,0-0.5,0-0.7,0c-0.1,0-0.3,0-0.4-0.1c-0.1,0-0.1-0.1-0.1-0.2c0-0.1,0.1-0.2,0.2-0.2c0.2,0,0.3-0.1,0.5-0.1c0.4,0,0.9,0,1.3,0
	c0.4,0,0.9,0,1.3,0l1.1,0c0.3,0,0.6,0,0.8,0c0.2,0,0.5,0,0.8,0s0.7,0,1.1,0s0.8,0,1.2,0s0.7,0,1,0c0.2,0,0.3,0,0.5,0.1
	c0.1,0,0.2,0.2,0.2,0.3c0,0.1-0.1,0.1-0.1,0.1c-0.1,0-0.3,0.1-0.4,0.1c-0.1,0-0.3,0-0.4,0c-0.1,0-0.3,0-0.5,0.1
	c-0.4,0-0.7,0.2-0.9,0.6c-0.2,0.4-0.3,0.8-0.3,1.3c0,0.2,0,0.4,0,0.6s0,0.5,0,0.8s0,0.7,0,1.2s0,1,0,1.7v8.1c0,1,0,1.9,0,2.8
	c0,0.9,0,1.6,0,2.3s0.1,1.3,0.1,1.7c0,0.3,0.1,0.6,0.2,0.8c0.1,0.2,0.2,0.4,0.4,0.6c0.2,0.2,0.5,0.3,0.7,0.3c0.2,0,0.3,0,0.5,0.1
	l0.6,0c0.2,0,0.4,0,0.5,0c0.1,0,0.3,0,0.4,0.1c0.1,0,0.1,0.1,0.1,0.2c0,0.1-0.1,0.2-0.2,0.2c-0.1,0.1-0.3,0.1-0.5,0.1
	c-0.7,0-1.4,0-2,0s-1.2,0-1.7,0s-0.9,0-1.2,0c-0.2,0-0.4,0-0.8,0s-0.7,0-1.1,0l-1.1,0c-0.4,0-0.7,0-1.1,0c-0.2,0-0.3,0-0.5-0.1
	c-0.1,0-0.2-0.1-0.2-0.2c0-0.1,0-0.2,0.1-0.2c0.1-0.1,0.3-0.1,0.4-0.1c0.2,0,0.4,0,0.7,0c0.2,0,0.4-0.1,0.5-0.1
	c0.2,0,0.4-0.1,0.5-0.3c0.1-0.2,0.2-0.4,0.3-0.6c0.1-0.3,0.1-0.6,0.2-0.8c0.1-0.5,0.1-1,0.1-1.7c0-0.7,0-1.5,0-2.3s0-1.8,0-2.8v-2.8
	c0-0.1,0-0.1-0.1-0.1c0,0-0.1,0-0.1,0H9.1c-0.5,8.5-0.8,17.2,4,23.8C-4.1,37.7,11,12.5,1.4,0z"/>
<path class="favicon" d="M0,0.1C8,9-0.2,29.2,5,41.9C-3.4,32,4.4,10.7,0,0.1z"/>
</svg>
