<svg xmlns="http://www.w3.org/2000/svg" xmlns:xlink="http://www.w3.org/1999/xlink" width="12.441" height="16" viewBox="0 0 12.441 16"><defs><clipPath id="Address-clip-path"><rect data-name="Rectangle 41012" width="12.441" height="16" transform="translate(0 0)" fill="currentcolor"></rect></clipPath></defs><g data-name="02" transform="translate(0 -0.003)"><g data-name="Group 129874" transform="translate(0 0.003)" clip-path="url(#Address-clip-path)"><path data-name="Subtraction 1" d="M16513.221-9986a.942.942,0,0,1-.762-.382l-4.213-5.655a6.184,6.184,0,0,1-1.248-3.739,6.218,6.218,0,0,1,5.9-6.215c.109-.006.219-.009.326-.009a6.243,6.243,0,0,1,4.512,1.952,6.17,6.17,0,0,1,1.7,4.619,6.212,6.212,0,0,1-1.238,3.392l-4.213,5.655A.933.933,0,0,1,16513.221-9986Zm-.068-13.517a3.744,3.744,0,0,0-3.74,3.74,3.744,3.744,0,0,0,3.74,3.739,3.74,3.74,0,0,0,3.734-3.739A3.741,3.741,0,0,0,16513.152-9999.518Z" transform="translate(-16507 10002)" fill="currentcolor" stroke="rgba(0,0,0,0)" stroke-miterlimit="10" stroke-width="1"></path></g></g></svg>