<svg xmlns="http://www.w3.org/2000/svg" xmlns:xlink="http://www.w3.org/1999/xlink" data-name="01" width="16.311" height="15" viewBox="0 0 16.311 15"><defs><clipPath id="contant-clip-path"><rect data-name="Rectangle 41011" width="16.311" height="15" fill="currentcolor"></rect></clipPath></defs><g data-name="Group 129873" clip-path="url(#contant-clip-path)"><path data-name="Path 60327" d="M283.4,0h-7.064a1.247,1.247,0,0,0-1.242,1.242V5.384a1.248,1.248,0,0,0,1.2,1.242l-.039,1.2a.565.565,0,0,0,.106.365.6.6,0,0,0,.257.206.716.716,0,0,0,.265.056.838.838,0,0,0,.509-.15l2.385-1.681H283.4a1.245,1.245,0,0,0,1.242-1.242V1.242A1.245,1.245,0,0,0,283.4,0m-5.6,2.752a.649.649,0,1,0,.648.648.65.65,0,0,0-.648-.648m2.155,0a.649.649,0,1,0,.647.648.65.65,0,0,0-.647-.648m1.99,0a.649.649,0,1,0,.651.648.649.649,0,0,0-.651-.648" transform="translate(-268.332 0)" fill="currentcolor" fill-rule="evenodd"></path><path data-name="Path 60328" d="M7.069,13.316a1.272,1.272,0,0,0,.257.132.612.612,0,0,0,.327.036,1.243,1.243,0,0,0,.413-.21,4.819,4.819,0,0,0,.519-.455c.054-.053.107-.11.16-.164a1.39,1.39,0,0,1,.576-.426.81.81,0,0,1,.636.075l3.276,1.672a.426.426,0,0,1,.2.214.583.583,0,0,1,.018.349,3.766,3.766,0,0,1-.541,1.305,2.693,2.693,0,0,1-1.632,1.1,4.98,4.98,0,0,1-2.22-.05,10.543,10.543,0,0,1-3.546-1.612,10.845,10.845,0,0,1-1.284-1.06A15.837,15.837,0,0,1,2.892,12.8,16.161,16.161,0,0,1,1.74,11.224a11.368,11.368,0,0,1-.8-1.455A10.6,10.6,0,0,1,0,5.984,5.012,5.012,0,0,1,.363,3.793,2.682,2.682,0,0,1,1.747,2.4a3.727,3.727,0,0,1,1.387-.3.576.576,0,0,1,.334.078.418.418,0,0,1,.175.242L4.682,5.948a.837.837,0,0,1-.043.641,1.429,1.429,0,0,1-.527.483c-.064.043-.128.086-.189.132a4.254,4.254,0,0,0-.54.427,1.168,1.168,0,0,0-.285.363.619.619,0,0,0-.028.331,1.622,1.622,0,0,0,.11.338,6.365,6.365,0,0,0,.644,1.071c.334.484.7.95,1.071,1.4s.768.9,1.181,1.316a6.646,6.646,0,0,0,.936.825Z" transform="translate(0 -2.048)" fill="currentcolor" fill-rule="evenodd"></path></g></svg>