<svg xmlns="http://www.w3.org/2000/svg" xmlns:xlink="http://www.w3.org/1999/xlink" x="0px" y="0px" viewBox="0 0 85.5 54" style="enable-background:new 0 0 85.5 54;" xml:space="preserve"><style type="text/css">	.st1{fill:currentColor;}</style><g transform="translate(0 0)">		<g transform="translate(0 0)" class="st0">			<path class="st1" d="M57.8,21.1c-0.5,0-0.9-0.2-1.3-0.5c-6.9-6.8-18-6.8-25,0c-0.7,0.7-1.8,0.7-2.5,0    c-0.7-0.7-0.7-1.8,0-2.5c0,0,0,0,0,0c8.3-8.2,21.7-8.2,30,0c0.7,0.7,0.7,1.8,0,2.5C58.7,20.9,58.3,21.1,57.8,21.1"></path>			<path class="st1" d="M50.6,26.7c-0.6,0-1.1-0.3-1.4-0.7c-2.3-2.9-6.5-3.3-9.3-1c-0.4,0.3-0.7,0.6-1,1    c-0.6,0.8-1.7,0.9-2.5,0.3c-0.8-0.6-0.9-1.7-0.3-2.5l0,0c3.5-4.4,9.9-5.2,14.3-1.7c0.6,0.5,1.2,1.1,1.7,1.7    c0.6,0.8,0.4,1.9-0.3,2.5C51.4,26.6,51,26.7,50.6,26.7"></path>			<path class="st1" d="M44,35.7c-2.5-0.1-4.4-2.2-4.3-4.7s2.2-4.4,4.7-4.3c2.4,0.1,4.3,2.1,4.3,4.5    C48.7,33.8,46.6,35.8,44,35.7 M44,30.2c-0.5,0.1-0.9,0.6-0.8,1.1c0.1,0.5,0.6,0.9,1.1,0.8c0.5-0.1,0.8-0.5,0.8-1    C45.1,30.6,44.6,30.2,44,30.2"></path>			<path class="st1" d="M77.1,45.8c-1,0-1.8-0.8-1.8-1.8V5.4c0-1-0.8-1.8-1.8-1.8H13.3c-1,0-1.8,0.8-1.8,1.8V44    c0,1-0.8,1.8-1.8,1.8S7.9,45,7.9,44V5.4c0-3,2.4-5.4,5.4-5.4h60.2c3,0,5.4,2.4,5.4,5.4V44C78.9,45,78.1,45.8,77.1,45.8"></path>			<path class="st1" d="M68.3,42.4H18.4c-2.5,0.1-4.7-1.9-4.8-4.5V10.2c0.1-2.5,2.2-4.5,4.8-4.5h49.9    c2.5-0.1,4.7,1.9,4.8,4.5v27.7C73,40.5,70.8,42.4,68.3,42.4 M18.4,9.3c-0.7,0-1.2,0.4-1.2,0.9v27.7c0,0.5,0.6,0.9,1.2,0.9h49.9    c0.7,0,1.2-0.4,1.2-0.9V10.2c0-0.5-0.6-0.9-1.2-0.9L18.4,9.3z"></path>			<path class="st1" d="M80.8,54h-76c-2.5,0.1-4.7-1.9-4.8-4.5v-0.4c0.1-2.5,2.2-4.5,4.8-4.5h76    c2.5-0.1,4.7,1.9,4.8,4.5v0.4C85.5,52.1,83.3,54.1,80.8,54 M4.8,48.3c-0.7,0-1.2,0.4-1.2,0.9v0.4c0,0.5,0.6,0.9,1.2,0.9h76    c0.7,0,1.2-0.4,1.2-0.9v-0.4c0-0.5-0.6-0.9-1.2-0.9H4.8z"></path>		</g></g></svg>