<svg xmlns="http://www.w3.org/2000/svg" xmlns:xlink="http://www.w3.org/1999/xlink" x="0px" y="0px" viewBox="0 0 483.9 483.9" style="enable-background:new 0 0 483.9 483.9;" xml:space="preserve"><path d="M242,483.9c-64.6,0-125.4-25.2-171.1-70.9S0,306.6,0,242S25.2,116.6,70.9,70.9S177.3,0,242,0s125.4,25.2,171.1,70.9 c45.7,45.7,70.9,106.5,70.9,171.1s-25.2,125.4-70.9,171.1C367.4,458.8,306.6,483.9,242,483.9L242,483.9z M242,8 C179.5,8,120.7,32.4,76.5,76.5S8,179.5,8,242s24.3,121.3,68.5,165.4C120.7,451.6,179.5,476,242,476s121.3-24.3,165.4-68.5 s68.5-102.9,68.5-165.4s-24.3-121.3-68.5-165.4S304.5,8,242,8L242,8z M183,343.8c-23.7,0-42.9-19.3-42.9-42.9S159.4,258,183,258 s42.9,19.3,42.9,42.9S206.7,343.8,183,343.8z M183,266c-19.3,0-34.9,15.7-34.9,34.9s15.7,34.9,34.9,34.9s34.9-15.7,34.9-34.9 S202.3,266,183,266z M300.9,343.8c-23.7,0-42.9-19.3-42.9-42.9s19.3-42.9,42.9-42.9s42.9,19.3,42.9,42.9S324.6,343.8,300.9,343.8z  M300.9,266c-19.3,0-34.9,15.7-34.9,34.9s15.7,34.9,34.9,34.9s34.9-15.7,34.9-34.9S320.2,266,300.9,266z M300.9,226 c-23.7,0-42.9-19.3-42.9-42.9s19.3-42.9,42.9-42.9s42.9,19.3,42.9,42.9S324.6,226,300.9,226z M300.9,148.1 c-19.3,0-34.9,15.7-34.9,34.9s15.7,34.9,34.9,34.9s34.9-15.7,34.9-34.9S320.2,148.1,300.9,148.1z M183,226 c-23.7,0-42.9-19.3-42.9-42.9s19.3-42.9,42.9-42.9S226,159.4,226,183S206.7,226,183,226z M183,148.1c-19.3,0-34.9,15.7-34.9,34.9 S163.8,218,183,218S218,202.3,218,183S202.3,148.1,183,148.1z"></path></svg>