<svg xmlns="http://www.w3.org/2000/svg" xmlns:xlink="http://www.w3.org/1999/xlink" x="0px" y="0px" viewBox="0 0 66.6 80.7" style="enable-background:new 0 0 66.6 80.7;" xml:space="preserve"><g>	<g>		<defs>			<rect width="66.6" height="80.7"></rect>		</defs>		<clipPath>			<use xlink:href="#SVGID_1_" style="overflow:visible;"></use>		</clipPath>		<g class="st0">			<path d="M39.7,80.7h-29C4.8,80.7,0,75.9,0,70V25.5h50.4V70C50.4,75.9,45.6,80.7,39.7,80.7 M3.7,29.1    V70c0,3.9,3.1,7,7,7h29c3.9,0,7-3.1,7-7V29.1H3.7z"></path>			<path d="M20.6,62.5h-5.3c-4.1,0-7.4-3.3-7.5-7.5V44.5c0-4.1,3.3-7.4,7.5-7.5h5.3    c4.1,0,7.4,3.3,7.5,7.5V55C28,59.2,24.7,62.5,20.6,62.5 M15.3,40.7c-2.1,0-3.8,1.7-3.8,3.8V55c0,2.1,1.7,3.8,3.8,3.8h5.3    c2.1,0,3.8-1.7,3.8-3.8V44.5c0-2.1-1.7-3.8-3.8-3.8H15.3z"></path>			<path d="M17.9,40.7c-1,0-1.8-0.8-1.8-1.8l0,0V27.6c0-1,0.8-1.8,1.8-1.8s1.8,0.8,1.8,1.8v11.2    C19.8,39.9,18.9,40.7,17.9,40.7L17.9,40.7"></path>			<path d="M12.3,22.2c-1,0-1.8-0.8-1.8-1.8l0,0c0-1.3-0.6-2.6-1.5-3.4c-3.2-3.2-3.2-8.4,0-11.6    c1-0.9,1.5-2.1,1.5-3.4c0-1,0.8-1.8,1.8-1.8s1.8,0.8,1.8,1.8c0,2.2-0.9,4.3-2.4,5.8c-1.9,1.7-2.1,4.6-0.3,6.5    c0.1,0.1,0.2,0.2,0.3,0.3c1.5,1.5,2.4,3.6,2.4,5.8C14.1,21.4,13.3,22.2,12.3,22.2L12.3,22.2"></path>			<path d="M26.2,22.2c-1,0-1.8-0.8-1.8-1.8l0,0c0-1.3-0.6-2.6-1.5-3.4c-3.2-3.2-3.2-8.4,0-11.6    c1-0.9,1.5-2.1,1.5-3.4c0-1,0.8-1.8,1.8-1.8S28,0.8,28,1.8c0,2.2-0.9,4.3-2.4,5.8c-1.9,1.7-2.1,4.6-0.3,6.5    c0.1,0.1,0.2,0.2,0.3,0.3c1.5,1.5,2.4,3.6,2.4,5.8C28,21.4,27.2,22.2,26.2,22.2L26.2,22.2"></path>			<path d="M40,22.2c-1,0-1.8-0.8-1.8-1.8l0,0c0-1.3-0.6-2.6-1.5-3.4c-3.2-3.2-3.2-8.4,0-11.6    c1-0.9,1.5-2.1,1.5-3.4C38.2,0.8,39,0,40,0s1.8,0.8,1.8,1.8c0,2.2-0.9,4.3-2.4,5.8c-1.9,1.7-2.1,4.6-0.3,6.5    c0.1,0.1,0.2,0.2,0.3,0.3c1.5,1.5,2.4,3.6,2.4,5.8C41.9,21.4,41.1,22.2,40,22.2L40,22.2"></path>			<path d="M55.2,63.8h-2.1c-1,0-1.8-0.8-1.8-1.8s0.8-1.8,1.8-1.8h2.1c2.1,0.1,4.1-0.6,5.6-2    c1.6-1.6,2.2-4.4,2.1-8.1c0-4.2-3.4-7.7-7.6-7.7c0,0,0,0,0,0h-2.4c-1,0-1.8-0.8-1.8-1.8s0.8-1.8,1.8-1.8h2.4    c6.2,0,11.3,5.1,11.3,11.3c0.2,4.7-0.8,8.3-3.1,10.7C61.3,62.8,58.3,64,55.2,63.8"></path>		</g>	</g></g></svg>