<svg xmlns="http://www.w3.org/2000/svg" xmlns:xlink="http://www.w3.org/1999/xlink" x="0px" y="0px" viewBox="0 0 87.2 71" style="enable-background:new 0 0 87.2 71;" xml:space="preserve"><g>	<g>		<defs>			<rect width="87.2" height="71"></rect>		</defs>		<clipPath>			<use xlink:href="#SVGID_1_" style="overflow:visible;"></use>		</clipPath>		<g>			<path d="M7.3,71c-2.5,0-4.6-2-4.6-4.6c0-1.2,0.5-2.4,1.3-3.2l6.8-6.7c0.7-0.7,1.9-0.7,2.6,0    c0.7,0.7,0.7,1.9,0,2.6c0,0,0,0,0,0l-6.8,6.7c-0.3,0.4-0.3,1,0.1,1.3c0.4,0.3,0.9,0.3,1.3,0l11-11c0.7-0.7,1.9-0.6,2.6,0.1    c0.6,0.7,0.6,1.8,0,2.5l-11,11C9.7,70.5,8.5,71,7.3,71"></path>			<path d="M65,71c-1.2,0-2.4-0.5-3.2-1.3l-11-11c-0.7-0.7-0.7-1.9,0-2.6c0.7-0.7,1.9-0.7,2.6,0l0,0    l11,11c0.4,0.4,0.9,0.4,1.3,0c0.4-0.4,0.4-0.9,0-1.3c0,0,0,0,0,0l-7.2-7.4c-0.7-0.7-0.7-1.9,0-2.6s1.9-0.7,2.6,0c0,0,0,0,0,0    l7.2,7.4c1.8,1.8,1.8,4.7,0,6.4C67.4,70.5,66.2,71,65,71"></path>			<path d="M58.4,58.9H5.9C2.7,58.9,0,56.2,0,53S2.7,47,5.9,47h50.6l21.3-15.3c2.7-1.9,6.4-1.3,8.3,1.3    c1.9,2.7,1.3,6.4-1.3,8.3L61.9,57.8C60.9,58.5,59.7,58.9,58.4,58.9 M5.9,50.7c-1.3,0-2.3,1-2.3,2.3c0,1.3,1,2.3,2.3,2.3    c0,0,0,0,0,0h52.5c0.5,0,1-0.2,1.3-0.4l22.8-16.5c1-0.7,1.3-2.2,0.5-3.2c-0.8-1-2.2-1.2-3.2-0.5l-22.2,16H5.9z"></path>			<path d="M10.9,31.2l-0.2-1.8c-0.8-7,1.5-14.1,6.3-19.3C22,4.5,28.8,1,36.2,0.2C37.5,0.1,38.7,0,40,0    c14.4,0,26.3,9.8,27.9,22.7l0.2,1.8L10.9,31.2z M40,3.6c-1.1,0-2.2,0.1-3.3,0.2c-6.5,0.7-12.6,3.8-17,8.7    c-3.7,4-5.6,9.3-5.5,14.7L64,21.3C61.8,11.1,51.8,3.6,40,3.6"></path>			<path d="M25.1,27.3c-1,0-1.8-0.8-1.8-1.8c-0.4-16.8,7.3-22.8,7.6-23c0.8-0.6,1.9-0.5,2.5,0.3    s0.5,1.9-0.3,2.5l0,0C33,5.5,26.6,10.7,27,25.5C27,26.5,26.2,27.3,25.1,27.3C25.2,27.3,25.2,27.3,25.1,27.3L25.1,27.3"></path>			<path d="M42.3,50.6c-0.9,0-1.7-0.7-1.8-1.6l-6-45.8c-0.1-1,0.6-1.9,1.6-2c1-0.1,1.9,0.6,2,1.6    l6,45.8c0.1,1-0.6,1.9-1.6,2C42.5,50.6,42.4,50.6,42.3,50.6"></path>			<path d="M52.4,24.9c-0.9,0-1.7-0.7-1.8-1.5C48.3,8.8,41,4.8,41,4.7c-0.9-0.5-1.2-1.6-0.7-2.5    c0.5-0.8,1.5-1.2,2.3-0.8c0.4,0.2,9,4.8,11.5,21.4c0.2,1-0.5,1.9-1.5,2.1C52.6,24.9,52.5,24.9,52.4,24.9"></path>		</g>	</g></g></svg>