<svg xmlns="http://www.w3.org/2000/svg" xmlns:xlink="http://www.w3.org/1999/xlink" x="0px" y="0px" viewBox="0 0 92 80" style="enable-background:new 0 0 92 80;" xml:space="preserve"><g transform="translate(-1385 -2513)">	<g transform="translate(1385 2530)">		<g>			<defs>				<rect x="0.4" y="-17" width="91.2" height="80"></rect>			</defs>			<clipPath>				<use xlink:href="#SVGID_1_" style="overflow:visible;"></use>			</clipPath>			<g transform="translate(0 0)" class="st0">				<path d="M63.9,41.5c-1.2,0-2.1-0.9-2.1-2.1V-6.2c0-3.6-2.9-6.6-6.6-6.6s-6.6,2.9-6.6,6.6     c0,0,0,0,0,0v6.3c0,1.2-0.9,2.1-2.1,2.1c-1.2,0-2.1-0.9-2.1-2.1v-6.3c0-6,4.8-10.8,10.8-10.8S66-12.2,66-6.2v45.6     C66,40.6,65.1,41.5,63.9,41.5"></path>				<path d="M31.6,41.5c-1.2,0-2.1-0.9-2.1-2.1V-6.2c0-3.6-2.9-6.6-6.6-6.6s-6.6,2.9-6.6,6.6v6.3     c-0.1,1.2-1,2.1-2.2,2c-1.1-0.1-1.9-0.9-2-2v-6.3c0.1-6,4.9-10.7,10.9-10.7c5.9,0.1,10.6,4.8,10.7,10.7v45.6     C33.7,40.6,32.8,41.5,31.6,41.5"></path>				<path d="M62.3,13.1H31.7c-1.2,0-2.1-0.9-2.1-2.1c0-1.2,0.9-2.1,2.1-2.1h30.5c1.2,0,2.1,0.9,2.1,2.1     C64.4,12.2,63.4,13.1,62.3,13.1"></path>				<path d="M62.3,30H31.7c-1.2,0-2.1-0.9-2.1-2.1c0-1.2,0.9-2.1,2.1-2.1h30.5c1.2,0,2.1,0.9,2.1,2.1     C64.4,29.1,63.4,30,62.3,30"></path>				<path d="M75,48.1c-4.4,0-6.8-2-8.6-3.7c-1.7-1.5-3-2.7-5.9-2.7s-4.2,1.2-5.9,2.7     c-1.9,1.6-4.2,3.7-8.6,3.7s-6.8-2-8.6-3.7c-1.7-1.5-3-2.7-5.9-2.7s-4.2,1.2-5.9,2.7c-1.9,1.6-4.2,3.7-8.6,3.7s-6.7-2-8.6-3.7     c-1.7-1.5-3-2.7-5.9-2.7c-1.2,0-2.1-0.9-2.1-2.1c0-1.2,0.9-2.1,2.1-2.1c4.4,0,6.7,2,8.6,3.7c1.7,1.5,3,2.7,5.9,2.7     s4.2-1.2,5.9-2.7c1.9-1.6,4.2-3.7,8.6-3.7s6.7,2,8.6,3.7c1.7,1.5,3,2.7,5.9,2.7s4.2-1.2,5.9-2.7c1.9-1.6,4.2-3.7,8.6-3.7     s6.8,2,8.6,3.7c1.7,1.5,3,2.7,5.9,2.7s4.2-1.2,5.9-2.7c1.9-1.6,4.2-3.7,8.6-3.7c1.2,0,2.1,0.9,2.1,2.1s-0.9,2.1-2.1,2.1     c0,0,0,0,0,0c-2.8,0-4.2,1.2-5.9,2.7C81.7,46,79.4,48.1,75,48.1"></path>				<path d="M75.2,63c-4.3,0-6.5-2.1-8.4-3.7c-1.7-1.5-2.9-2.6-5.5-2.6s-3.9,1.1-5.5,2.6     C54,60.9,51.7,63,47.5,63s-6.5-2.1-8.3-3.7c-1.7-1.5-2.9-2.6-5.5-2.6s-3.9,1.1-5.5,2.6C26.3,60.9,24,63,19.7,63     s-6.5-2.1-8.3-3.7c-1.7-1.5-2.9-2.6-5.5-2.6c-1.2,0-2.1-0.9-2.1-2.1c0-1.2,0.9-2.1,2.1-2.1c4.3,0,6.5,2.1,8.3,3.7     c1.7,1.5,2.9,2.6,5.5,2.6c2.6,0,3.9-1.1,5.5-2.6c1.8-1.7,4.1-3.7,8.3-3.7s6.5,2.1,8.4,3.7c1.7,1.5,2.9,2.6,5.5,2.6     s3.9-1.1,5.5-2.6c1.8-1.7,4.1-3.7,8.3-3.7s6.5,2.1,8.4,3.7c1.7,1.5,2.9,2.6,5.5,2.6s3.9-1.1,5.5-2.6c1.8-1.7,4.1-3.7,8.4-3.7     c1.2,0,2.1,0.9,2.1,2.1c0,1.2-0.9,2.1-2.1,2.1c-2.7,0-3.9,1.1-5.5,2.6C81.7,60.9,79.5,63,75.2,63"></path>			</g>		</g>	</g></g></svg>