<svg xmlns="http://www.w3.org/2000/svg" xmlns:xlink="http://www.w3.org/1999/xlink" x="0px" y="0px" viewBox="0 0 90.6 80" style="enable-background:new 0 0 90.6 80;" xml:space="preserve"><g transform="translate(0 0)">	<g transform="translate(0 0)">		<g>			<defs>				<rect width="90.6" height="80"></rect>			</defs>			<clipPath>				<use xlink:href="#SVGID_1_" style="overflow:visible;"></use>			</clipPath>			<g class="st0">				<g>					<path d="M88.2,62.2H45.1c-0.5,0-1-0.3-1.3-0.7s-0.3-1,0-1.5l12.5-22.3h-8.8c-0.5,0-1-0.3-1.3-0.7      c-0.3-0.5-0.3-1,0-1.5L65.4,1.2c0.3-0.5,0.8-0.8,1.3-0.8s1,0.3,1.3,0.8l19.2,34.2c0.3,0.5,0.3,1,0,1.5      c-0.3,0.5-0.8,0.7-1.3,0.7H77L89.5,60c0.3,0.5,0.3,1,0,1.5S88.7,62.2,88.2,62.2z M47.7,59.2h37.9L73.2,36.9      c-0.3-0.5-0.3-1,0-1.5s0.8-0.7,1.3-0.7h8.8L66.7,5L50.1,34.6h8.8c0.5,0,1,0.3,1.3,0.7c0.3,0.5,0.3,1,0,1.5L47.7,59.2z"></path>				</g>				<g>					<path d="M66.9,78c-0.8,0-1.5-0.7-1.5-1.5v-15c0-0.8,0.7-1.5,1.5-1.5s1.5,0.7,1.5,1.5v15C68.4,77.3,67.7,78,66.9,78      z"></path>				</g>				<g>					<path d="M88.7,79.6H1.9c-0.8,0-1.5-0.7-1.5-1.5s0.7-1.5,1.5-1.5h86.8c0.8,0,1.5,0.7,1.5,1.5S89.6,79.6,88.7,79.6z"></path>				</g>				<g>					<path d="M16.6,77.9c-0.2,0-0.4,0-0.5-0.1c-0.8-0.3-1.2-1.2-0.8-1.9l8.1-20.8c0.3-0.8,1.2-1.2,1.9-0.8      c0.8,0.3,1.2,1.2,0.8,1.9L18,76.9C17.8,77.5,17.2,77.9,16.6,77.9z"></path>				</g>				<g>					<path d="M39.6,77.9c-0.6,0-1.2-0.4-1.4-1l-8.1-20.8c-0.3-0.8,0.1-1.6,0.8-1.9c0.8-0.3,1.6,0.1,1.9,0.8L41,75.8      c0.3,0.8-0.1,1.6-0.8,1.9C40,77.9,39.8,77.9,39.6,77.9z"></path>				</g>			</g>		</g>	</g>	<g>		<path d="M37.9,56.8H18.3c-0.8,0-1.5-0.7-1.5-1.5s0.7-1.5,1.5-1.5h19.6c0.8,0,1.5,0.7,1.5,1.5S38.7,56.8,37.9,56.8z"></path>	</g>	<g>		<path d="M45,68.6H11.2c-0.8,0-1.5-0.7-1.5-1.5s0.7-1.5,1.5-1.5H45c0.8,0,1.5,0.7,1.5,1.5S45.9,68.6,45,68.6z"></path>	</g></g></svg>