<svg xmlns="http://www.w3.org/2000/svg" xmlns:xlink="http://www.w3.org/1999/xlink" x="0px" y="0px" viewBox="0 0 108 60" style="enable-background:new 0 0 108 60;" xml:space="preserve"><g transform="translate(-672 -2513)">	<g transform="translate(672 2541.5)">		<g>			<defs>				<rect x="-0.4" y="-28.5" width="108.9" height="60"></rect>			</defs>			<clipPath>				<use xlink:href="#SVGID_1_" style="overflow:visible;"></use>			</clipPath>			<g>				<g>					<path d="M8.4,30.7c0,0-0.1,0-0.1,0c-4.5-0.1-8-3.6-8.1-8.1V-8.5c0.1-4.5,3.8-8.1,8.3-8.1c4.5,0.1,8,3.6,8.1,8.1      v31.1c0,0,0,0,0,0c0,2.2-0.9,4.2-2.5,5.7C12.6,29.9,10.6,30.7,8.4,30.7z M8.4-13.6c-2.8,0-5.1,2.3-5.2,5.1v31.1      c0,2.8,2.3,5,5.1,5.1c0,0,0,0,0.1,0c2.8,0,5.1-2.3,5.2-5.1V-8.5C13.6-11.3,11.3-13.6,8.4-13.6C8.5-13.6,8.5-13.6,8.4-13.6z       M15.1,22.6L15.1,22.6L15.1,22.6z"></path>				</g>				<g>					<path d="M99.6,30.7c0,0-0.1,0-0.1,0c-4.5-0.1-8-3.6-8.1-8.1v-42.2c0-2.2,0.9-4.2,2.5-5.8c1.6-1.5,3.6-2.4,5.8-2.3      c4.5,0.1,8,3.6,8.1,8.1v42.2c0,0,0,0,0,0C107.7,27.1,104,30.7,99.6,30.7z M99.6-24.7c-1.4,0-2.6,0.5-3.6,1.5      c-1,1-1.5,2.3-1.6,3.6v42.2c0,2.8,2.3,5,5.1,5.1c0,0,0,0,0.1,0c2.8,0,5.1-2.3,5.2-5.1v-42.2C104.7-22.4,102.4-24.7,99.6-24.7      C99.6-24.7,99.6-24.7,99.6-24.7z M106.2,22.6L106.2,22.6L106.2,22.6z"></path>				</g>				<g>					<path d="M92.4,1.9H15.1c-0.8,0-1.5-0.7-1.5-1.5s0.7-1.5,1.5-1.5h77.3c0.8,0,1.5,0.7,1.5,1.5S93.3,1.9,92.4,1.9z"></path>				</g>				<g>					<path d="M92.4,17.4H40.7c-0.8,0-1.5-0.7-1.5-1.5s0.7-1.5,1.5-1.5h51.8c0.8,0,1.5,0.7,1.5,1.5S93.3,17.4,92.4,17.4z      "></path>				</g>				<g>					<path d="M32.3,17.4H15.1c-0.8,0-1.5-0.7-1.5-1.5s0.7-1.5,1.5-1.5h17.2c0.8,0,1.5,0.7,1.5,1.5S33.2,17.4,32.3,17.4z      "></path>				</g>				<g>					<path d="M74-0.3c-0.8,0-1.5-0.7-1.5-1.5v-2.2c0-8.2,6.7-14.8,14.8-14.8h5c0.8,0,1.5,0.7,1.5,1.5s-0.7,1.5-1.5,1.5      h-5c-6.5,0-11.8,5.3-11.8,11.8v2.2C75.5-1,74.8-0.3,74-0.3z"></path>				</g>				<g>					<path d="M72.6,1.2c-0.8,0-1.5-0.7-1.5-1.5c0-5.9-6.7-6.4-8.7-6.4H15.8c-0.8,0-1.5-0.7-1.5-1.5s0.7-1.5,1.5-1.5      h46.6c7.1,0,11.7,3.7,11.7,9.4C74.1,0.6,73.4,1.2,72.6,1.2z"></path>				</g>			</g>		</g>	</g></g></svg>