<svg xmlns="http://www.w3.org/2000/svg" xmlns:xlink="http://www.w3.org/1999/xlink" x="0px" y="0px" viewBox="0 0 85 90" style="enable-background:new 0 0 85 90;" xml:space="preserve"><g transform="translate(-140 -2513)">	<g transform="translate(140 2524)">		<g>			<g transform="translate(0 0)">				<g>					<path d="M42.7,78.8c-15.2,0-27.5-12.3-27.5-27.5s12.3-27.5,27.5-27.5c15.2,0,27.5,12.3,27.5,27.5      S57.8,78.8,42.7,78.8z M42.7,26.8c-13.5,0-24.5,11-24.5,24.5c0,13.5,11,24.5,24.5,24.5c13.5,0,24.5-11,24.5-24.5      C67.2,37.8,56.2,26.8,42.7,26.8z"></path>				</g>				<g>					<path d="M42.7,66.7c-8.5,0-15.4-6.9-15.4-15.4S34.2,36,42.7,36S58,42.9,58,51.3S51.1,66.7,42.7,66.7z M42.7,39      c-6.8,0-12.4,5.5-12.4,12.4s5.5,12.4,12.4,12.4S55,58.2,55,51.3S49.5,39,42.7,39z"></path>				</g>				<g>					<path d="M75.7,77.6c-0.8,0-1.5-0.7-1.5-1.5V58.1c0-0.1,0-0.3,0-0.4v-31c0-0.6,0.4-1.2,0.9-1.4      c0.6-0.2,1.2-0.1,1.6,0.4c0.3,0.4,8.2,8.8,8.2,24.9c0,3.6-2.5,4.9-4.8,6.1c-1,0.5-2.1,1.1-3,1.9v17.6      C77.2,76.9,76.5,77.6,75.7,77.6z M77.2,31.4v23.5c0.5-0.3,1.1-0.6,1.6-0.9c2.2-1.2,3.2-1.8,3.2-3.5      C82,41.5,79.3,35.1,77.2,31.4z"></path>				</g>				<g>					<path d="M5.9,77.4c-0.8,0-1.5-0.7-1.5-1.5V47.5c0-0.4,0.2-0.8,0.4-1.1C5.1,46.1,5.5,46,5.9,46c0,0,0,0,0,0      c2.6,0,4.7-2.1,4.7-4.7c0-0.1,0-0.2,0-0.3l0-13.3c0-0.8,0.7-1.5,1.5-1.5s1.5,0.7,1.5,1.5v13.2c0,0.1,0,0.2,0,0.4      c0,3.8-2.7,6.9-6.2,7.6v27.1C7.4,76.7,6.7,77.4,5.9,77.4z"></path>				</g>				<g>					<path d="M6.8,38.6c-0.8,0-1.5-0.7-1.5-1.5v-9.5c0-0.8,0.7-1.5,1.5-1.5s1.5,0.7,1.5,1.5v9.5      C8.3,37.9,7.6,38.6,6.8,38.6z"></path>				</g>				<g>					<path d="M1.5,38.6c-0.8,0-1.5-0.7-1.5-1.5v-9.5c0-0.8,0.7-1.5,1.5-1.5S3,26.8,3,27.6v9.5C3,37.9,2.4,38.6,1.5,38.6      z"></path>				</g>				<g>					<path d="M25.8,19c-0.2,0-0.5-0.1-0.7-0.2l-6.2-3.2l-6.2,3.2c-0.5,0.3-1.1,0.2-1.6-0.1c-0.5-0.3-0.7-0.9-0.6-1.4      l1-7L6.7,5.4C6.3,5,6.2,4.4,6.3,3.9c0.2-0.5,0.6-0.9,1.2-1l6.9-1.3l3.2-6.1c0.3-0.5,0.8-0.8,1.3-0.8l0,0c0.6,0,1.1,0.3,1.3,0.8      l3.2,6.1l6.9,1.3c0.5,0.1,1,0.5,1.2,1c0.2,0.5,0,1.1-0.4,1.5l-4.9,4.8l1,7c0.1,0.6-0.2,1.1-0.6,1.4C26.4,18.9,26.1,19,25.8,19z       M18.9,12.4c0.2,0,0.5,0.1,0.7,0.2l4.3,2.2l-0.7-4.9c-0.1-0.5,0.1-1,0.4-1.3L27,5.3l-4.8-0.9c-0.5-0.1-0.8-0.4-1.1-0.8      l-2.2-4.2l-2.2,4.2c-0.2,0.4-0.6,0.7-1.1,0.8l-4.8,0.9l3.4,3.3c0.3,0.3,0.5,0.8,0.4,1.3l-0.7,4.9l4.3-2.2      C18.5,12.4,18.7,12.4,18.9,12.4z"></path>				</g>				<g>					<path d="M49.1,13.4c-0.2,0-0.5-0.1-0.7-0.2L42.2,10L36,13.2c-0.5,0.3-1.1,0.2-1.6-0.1s-0.7-0.9-0.6-1.4l1-7L30-0.2      c-0.4-0.4-0.5-1-0.4-1.5c0.2-0.5,0.6-0.9,1.2-1L37.7-4l3.2-6.1c0.3-0.5,0.8-0.8,1.3-0.8s1.1,0.3,1.3,0.8L46.8-4l6.9,1.3      c0.5,0.1,1,0.5,1.2,1c0.2,0.5,0,1.1-0.4,1.5l-4.9,4.8l1,7c0.1,0.6-0.2,1.1-0.6,1.4C49.8,13.3,49.5,13.4,49.1,13.4z M34.2-0.3      L37.5,3C37.9,3.4,38,3.9,38,4.3l-0.7,4.9L41.6,7c0.4-0.2,1-0.2,1.4,0l4.3,2.2l-0.7-4.9c-0.1-0.5,0.1-1,0.4-1.3l3.4-3.3      l-4.8-0.9c-0.5-0.1-0.8-0.4-1.1-0.8l-2.2-4.2L40-1.9c-0.2,0.4-0.6,0.7-1.1,0.8L34.2-0.3z"></path>				</g>				<g>					<path d="M58.7,19c-0.3,0-0.6-0.1-0.9-0.3c-0.5-0.3-0.7-0.9-0.6-1.4l1-7l-4.9-4.8c-0.4-0.4-0.5-1-0.4-1.5      c0.2-0.5,0.6-0.9,1.2-1L61,1.6l3.2-6.1C64.5-5,65-5.3,65.6-5.3c0.6,0,1.1,0.3,1.3,0.8l3.2,6.1L77,2.8c0.5,0.1,1,0.5,1.2,1      s0,1.1-0.4,1.5l-4.9,4.8l1,7c0.1,0.6-0.2,1.1-0.6,1.4s-1.1,0.4-1.6,0.1l-6.2-3.2l-6.2,3.2C59.1,18.9,58.9,19,58.7,19z       M65.6,12.4c0.2,0,0.5,0.1,0.7,0.2l4.3,2.2l-0.7-4.9c-0.1-0.5,0.1-1,0.4-1.3l3.4-3.3l-4.8-0.9C68.4,4.3,68,4,67.8,3.6l-2.2-4.2      l-2.2,4.2c-0.2,0.4-0.6,0.7-1.1,0.8l-4.8,0.9l3.4,3.3c0.3,0.3,0.5,0.8,0.4,1.3l-0.7,4.9l4.3-2.2C65.1,12.4,65.3,12.4,65.6,12.4      z"></path>				</g>			</g>		</g>	</g></g></svg>