<svg xmlns="http://www.w3.org/2000/svg" xmlns:xlink="http://www.w3.org/1999/xlink" x="0px" y="0px" viewBox="0 0 22 22" style="enable-background:new 0 0 22 22;" xml:space="preserve"><g transform="translate(3.462 21)">	<path d="M12.2,1H2.9c-3.5,0-6.4-2.8-6.4-6.4v-9.3c0-3.5,2.8-6.4,6.4-6.4h9.3c3.5,0,6.4,2.8,6.4,6.4  v9.3C18.5-1.8,15.7,1,12.2,1 M2.9-18.8c-2.3,0-4.1,1.9-4.1,4.1v9.3c0,2.3,1.9,4.1,4.1,4.1h9.3c2.3,0,4.1-1.9,4.1-4.1v-9.3  c0-2.3-1.9-4.1-4.1-4.1H2.9z"></path>	<path d="M7.5-4.4C4.5-4.4,2-6.9,2-10s2.5-5.6,5.6-5.6c3.1,0,5.6,2.5,5.6,5.6v0  C13.1-6.9,10.6-4.4,7.5-4.4 M7.5-13.7c-2.1,0-3.7,1.7-3.7,3.7s1.7,3.7,3.7,3.7c2.1,0,3.7-1.7,3.7-3.7c0,0,0,0,0,0  C11.3-12.1,9.6-13.7,7.5-13.7"></path>	<path d="M14.5-15.8c0,0.7-0.6,1.3-1.3,1.3s-1.3-0.6-1.3-1.3c0-0.7,0.6-1.3,1.3-1.3l0,0  C13.9-17.1,14.5-16.6,14.5-15.8"></path></g></svg>