<svg xmlns="http://www.w3.org/2000/svg" xmlns:xlink="http://www.w3.org/1999/xlink" x="0px" y="0px" viewBox="0 0 21.3 21.3" style="enable-background:new 0 0 21.3 21.3;" xml:space="preserve"><rect x="0.3" y="7.1" class="st0" width="4.5" height="14.1"></rect><path d="M2.6,0C1.1,0,0,1.1,0,2.6s1.1,2.6,2.6,2.6C4,5.1,5.1,4,5.1,2.6c0,0,0,0,0,0C5.1,1.1,4,0,2.6,0"></path><path d="M16.3,6.7c-3.4,0-4.4,2.4-4.4,2.4V7.1H7.5v14.1H12v-7.4c0-1,0.3-3.3,2.6-3.3s2.3,2.7,2.3,2.7v8 h4.4v-8.4C21.3,8.9,19.7,6.7,16.3,6.7"></path></svg>