<svg xmlns="http://www.w3.org/2000/svg" xmlns:xlink="http://www.w3.org/1999/xlink" x="0px" y="0px" viewBox="0 0 13.6 18" style="enable-background:new 0 0 13.6 18;" xml:space="preserve"><style type="text/css">	.st1{fill:currentColor;}</style>	<g class="st0">		<path class="st1" d="M6.8,0C3.1,0,0,3.1,0,6.8C0,9.6,3.9,15,6,17.6c0.4,0.5,1,0.5,1.5,0.2c0.1-0.1,0.1-0.1,0.2-0.2   c2.1-2.6,6-8,6-10.8C13.6,3.1,10.6,0,6.8,0 M9.9,7.1C9.7,8.7,8.2,10,6.6,9.9C4.9,9.7,3.6,8.2,3.8,6.6c0.1-1.5,1.3-2.7,2.8-2.8   c1.7-0.1,3.2,1.1,3.3,2.8C9.9,6.8,9.9,6.9,9.9,7.1"></path>	</g></svg>