<svg xmlns="http://www.w3.org/2000/svg" xmlns:xlink="http://www.w3.org/1999/xlink" x="0px" y="0px" viewBox="0 0 46.6 61.5" style="enable-background:new 0 0 46.6 61.5;" xml:space="preserve"><style type="text/css">	.st1{fill:#9B804E;}</style>	<g class="st0">		<path class="st1" d="M23.3,0C10.4,0,0,10.4,0,23.3C0,33,13.4,51.2,20.5,60.2c1.2,1.6,3.5,1.8,5.1,0.6   c0.2-0.2,0.4-0.4,0.6-0.6c7.1-9,20.5-27.2,20.5-36.9C46.6,10.4,36.2,0,23.3,0 M33.7,24.2c-0.5,5.7-5.5,10-11.2,9.5   s-10-5.5-9.5-11.2c0.4-5.1,4.5-9.1,9.5-9.5c5.8-0.4,10.8,3.9,11.2,9.6C33.7,23.1,33.7,23.6,33.7,24.2"></path>	</g></svg>