<svg xmlns="http://www.w3.org/2000/svg" width="22.235" height="18" viewBox="0 0 22.235 18"><g data-name="Group 25708" transform="translate(-1362.5 -59.5)"><path data-name="Line 357" d="M20.176,1H.059A1.031,1.031,0,0,1-1,0,1.031,1.031,0,0,1,.059-1H20.176a1.031,1.031,0,0,1,1.059,1A1.031,1.031,0,0,1,20.176,1Z" transform="translate(1363.5 60.5)"></path><path data-name="Line 358" d="M11,1H0A1,1,0,0,1-1,0,1,1,0,0,1,0-1H11a1,1,0,0,1,1,1A1,1,0,0,1,11,1Z" transform="translate(1372.735 67.967)"></path><path data-name="Line 359" d="M14,1H0A1,1,0,0,1-1,0,1,1,0,0,1,0-1H14a1,1,0,0,1,1,1A1,1,0,0,1,14,1Z" transform="translate(1369.735 76.5)"></path></g></svg>