<svg xmlns="http://www.w3.org/2000/svg" xmlns:xlink="http://www.w3.org/1999/xlink" x="0px" y="0px" viewBox="0 0 24 24" style="enable-background:new 0 0 24 24;" xml:space="preserve"><g>	<g>		<defs>			<rect width="24" height="24"></rect>		</defs>		<clipPath>			<use xlink:href="#SVGID_1_" style="overflow:visible;"></use>		</clipPath>		<g class="st0">			<path class="st1" d="M24,11.9c0,3.3-1.4,6.6-3.8,8.8c-0.2,0.2-0.4,0.2-0.6,0c0,0,0,0,0,0l-2.6-3.1    c-0.2-0.2-0.2-0.5,0-0.7l1.9-2.2c0.1-0.2,0.4-0.2,0.6,0c0,0,0,0,0,0l2,2.3c0.1,0.1,0.3,0.1,0.4,0c0,0,0-0.1,0.1-0.1    c2.7-5.4,0.5-12.1-4.9-14.8S4.9,1.6,2.1,7.1c-1.6,3.1-1.5,6.8,0,9.9c0.1,0.2,0.3,0.2,0.5,0.1c0,0,0.1,0,0.1-0.1l2-2.4    c0.2-0.2,0.4-0.2,0.6,0c0,0,0,0,0,0l1.9,2.2c0.2,0.2,0.2,0.5,0,0.7l-2.7,3.2C4.5,21,4.1,21,3.8,20.8c0,0,0,0,0,0    C3,20,2.3,19.2,1.8,18.3l0,0c-3.5-5.7-1.7-13,4-16.5s13-1.7,16.5,4C23.4,7.6,24,9.7,24,11.9"></path>			<path class="st1" d="M15.9,10.2l0.9-1h-2.2V7.8h-2.8v1.9h1.3v1.5h3.7L16,10.4C15.9,10.3,15.9,10.2,15.9,10.2    L15.9,10.2"></path>			<rect x="11.8" y="7.2" class="st1" width="0.3" height="5.6"></rect>			<path class="st1" d="M12,13.2c-0.2,0.2-0.3,0.4-0.4,0.7l0,0c0,0,0,0,0,0c0,0,0,0,0,0c0,0,0,0.1,0.1,0.1    c0.1,0,0.3,0.1,0.4,0.1c0.2,0.1,0.5,0.2,0.7,0.3c0.2,0.1,0.5,0.3,0.7,0.4c0.2,0.2,0.4,0.4,0.6,0.6c0,0.1,0.1,0.1,0.1,0.2    c0,0,0,0.1,0,0.1c0,0.1,0,0.1,0,0.2c0,0.1-0.1,0.2-0.1,0.2c-0.1,0.1-0.1,0.1-0.2,0.2c-0.2,0.2-0.5,0.3-0.7,0.4    c-0.3,0.1-0.5,0.2-0.8,0.3c-0.5,0.2-1,0.4-1.5,0.6c-0.2,0.1-0.5,0.2-0.7,0.3c-0.2,0.1-0.4,0.2-0.6,0.4c-0.1,0.1-0.1,0.1-0.2,0.2    c0,0,0,0.1,0,0.1c0,0,0,0,0,0c0,0,0,0,0,0.1c0.1,0.2,0.2,0.4,0.4,0.5c0.2,0.2,0.4,0.3,0.6,0.4c0.2,0.1,0.5,0.2,0.7,0.3    c0.5,0.2,1,0.4,1.5,0.5c0.5,0.1,1,0.3,1.5,0.4s1,0.3,1.5,0.4c2.2,0.5,3,0.2,3.2-0.2c0.1-0.2,0.1-0.5-0.1-0.6l-6.3-8    C12.3,12.9,12.1,13.1,12,13.2"></path>			<path class="st1" d="M15.4,22.4c-0.3,0-0.5-0.1-0.8-0.2s-0.5-0.1-0.8-0.2s-0.5-0.1-0.8-0.2s-0.5-0.2-0.8-0.3    c-0.5-0.2-1-0.4-1.5-0.7c-0.2-0.1-0.5-0.3-0.7-0.4c-0.2-0.2-0.5-0.3-0.7-0.5c-0.1-0.1-0.2-0.2-0.3-0.3L9,19.5l-0.1-0.1    c0,0,0-0.1-0.1-0.1c0,0,0-0.1,0-0.1l0-0.1c0,0,0-0.1,0-0.1c0-0.1,0-0.2,0.1-0.3c0.1-0.2,0.2-0.3,0.3-0.4c0.2-0.2,0.5-0.3,0.7-0.5    c0.2-0.1,0.5-0.2,0.8-0.3c0.5-0.2,1-0.4,1.5-0.5c0.3-0.1,0.5-0.2,0.7-0.3c0.2-0.1,0.5-0.2,0.7-0.3c0.1,0,0.2-0.1,0.2-0.2    c0,0,0,0,0,0c0,0,0,0,0-0.1c0,0,0-0.1-0.1-0.1c-0.1-0.2-0.3-0.4-0.5-0.5c-0.4-0.3-0.9-0.6-1.3-0.8c-0.1-0.1-0.2-0.1-0.4-0.2    c-0.1,0-0.2-0.1-0.2-0.2c0,0,0-0.1,0-0.1c0,0,0,0,0-0.1l0,0c0.1-0.2,0.3-0.5,0.5-0.7c0.1-0.2,0.3-0.3,0.5-0.5    c-0.2-0.2-0.4-0.2-0.6-0.1c0,0-0.1,0.1-0.1,0.1l-6.3,8.5c-0.2,0.3-0.2,0.7,0.1,1c0,0,0,0,0,0c3.6,2.3,8.1,2.5,11.8,0.6    C16.7,22.7,16,22.5,15.4,22.4"></path>		</g>	</g></g></svg>