<svg xmlns="http://www.w3.org/2000/svg" xmlns:xlink="http://www.w3.org/1999/xlink" id="Group_25710" data-name="Group 25710" width="18" height="18" viewBox="0 0 18 18"><defs><clipPath id="search-clip-path"><rect id="Rectangle_9095" data-name="Rectangle 9095" width="18" height="18" fill="none" stroke="#000" stroke-width="1"></rect></clipPath></defs><g data-name="Group 25709" clip-path="url(#search-clip-path)"><path data-name="Ellipse 131" d="M6.588-1A7.588,7.588,0,1,1-1,6.588,7.6,7.6,0,0,1,6.588-1Zm0,13.176A5.588,5.588,0,1,0,1,6.588,5.594,5.594,0,0,0,6.588,12.176Z" transform="translate(1 1)"></path><path data-name="Line 357" d="M4.706,5.706A1,1,0,0,1,4,5.413L-.707.707a1,1,0,0,1,0-1.414,1,1,0,0,1,1.414,0L5.413,4a1,1,0,0,1-.707,1.707Z" transform="translate(12.294 12.294)"></path></g></svg>