<svg xmlns="http://www.w3.org/2000/svg" xmlns:xlink="http://www.w3.org/1999/xlink" x="0px" y="0px" viewBox="0 0 78.5 78.6" style="enable-background:new 0 0 78.5 78.6;" xml:space="preserve"><path d="M78.1,76.3L58.2,56.4c12.2-13.2,11.9-33.7-0.9-46.6C50.7,3.2,42.1,0,33.6,0S16.4,3.3,9.9,9.8C-3.3,23-3.3,44.3,9.8,57.4 c6.6,6.6,15.2,9.8,23.7,9.8c8.2,0,16.4-3,22.8-8.9l19.9,19.9c0.3,0.3,0.6,0.4,0.9,0.4s0.7-0.1,0.9-0.4 C78.6,77.7,78.6,76.8,78.1,76.3z M33.5,64.6c-8.3,0-16.1-3.2-21.9-9.1c-12.1-12.1-12.1-31.8,0-43.8c5.9-5.9,13.6-9.1,21.9-9.1 s16.1,3.2,21.9,9.1c12.1,12.1,12.1,31.8,0,43.8C49.6,61.4,41.8,64.6,33.5,64.6z"></path></svg>