<svg xmlns="http://www.w3.org/2000/svg" xmlns:xlink="http://www.w3.org/1999/xlink" x="0px" y="0px" viewBox="0 0 17.6 18" style="enable-background:new 0 0 17.6 18;" xml:space="preserve"><style type="text/css">	.st1{fill:currentColor;}</style>	<g transform="translate(0 0)" class="st0">		<path class="st1" d="M16.9,13L14,11.5c-0.7-0.4-1.7-0.2-2.2,0.5l-1.2,1.5C9.3,12.6,8,11.6,7,10.4   C5.8,9.3,5,8,4.5,6.6l2-1.1c0.7-0.4,1-1.2,0.7-2L5.7,0.7C5.4,0.1,4.5-0.2,3.8,0.2c0,0,0,0,0,0c-1.4,0.7-3.5,2-3.7,3.5   c-0.3,3.6,0.8,7.1,3.3,9.7c2.5,2.7,6,4.4,9.7,4.7c1.7,0,3.4-1.9,4.3-3.2c0.4-0.5,0.3-1.3-0.3-1.7C17.1,13.1,17,13,16.9,13"></path>	</g></svg>