<svg xmlns="http://www.w3.org/2000/svg" xmlns:xlink="http://www.w3.org/1999/xlink" x="0px" y="0px" viewBox="0 0 21.6 17.7" style="enable-background:new 0 0 21.6 17.7;" xml:space="preserve"><path d="M10.5,5.5C5,5.3,1.3,0.8,1.3,0.8s-1.9,3.6,1.3,5.9C2,6.8,1.4,6.6,0.8,6.3 c-0.1,2.1,1.3,4,3.4,4.4c0,0-0.3,0.3-1.9,0.1c0.5,1.8,2.2,3,4.1,3c0,0-2,2.2-6.4,1.9c4.4,2.7,10.1,2.6,14.3-0.4 c2.5-1.7,5.5-6.5,5.1-10.9C20.3,3.8,21,3,21.6,2.1c0,0-0.6,0.2-1.2,0.4c-0.4,0.1-0.8,0.2-1.2,0.2c0,0,1.7-1.1,1.8-2.4 c-0.9,0.5-1.8,0.8-2.8,1.1h0c-1.7-1.8-4.5-1.9-6.3-0.2C10.7,2.3,10.2,3.9,10.5,5.5L10.5,5.5z"></path></svg>