<svg xmlns="http://www.w3.org/2000/svg" xmlns:xlink="http://www.w3.org/1999/xlink" x="0px" y="0px" viewBox="0 0 30.6 17" style="enable-background:new 0 0 30.6 17;" xml:space="preserve"><g>	<g>		<defs>			<rect width="30.6" height="17"></rect>		</defs>		<clipPath>			<use xlink:href="#SVGID_1_" style="overflow:visible;"></use>		</clipPath>		<g class="st0">			<path class="st1" d="M6.2,6.7c-1.7,0-3,1.3-3,3c0,0.1,0,0.2,0,0.3c0.2-0.8,1.4-1.3,3-1.3s2.8,0.6,3,1.3    c0.2-1.6-1-3.1-2.7-3.3C6.4,6.7,6.3,6.7,6.2,6.7"></path>			<path class="st1" d="M28.3,5.7c-1.9-2.2-4.3-4-6.9-5.4c-1.4-0.8-3.1-0.3-3.9,1.1c-0.1,0.2-0.2,0.5-0.3,0.8    c0,0,0,0,0,0.1c0,0,0,0.1-0.1,0.1h-3.9c0,0-0.1,0-0.1-0.1c0,0,0,0,0-0.1c-0.3-1.5-1.9-2.5-3.4-2.2C9.5,0.1,9.2,0.2,9,0.4    c-2.9,1.4-5.4,3.5-7.4,6c-2.3,2.7-2.1,6.7,0.6,9s6.7,2.1,9-0.6c1.3-1.5,1.9-3.5,1.4-5.5c0-0.2,0.1-0.3,0.2-0.3c0,0,0,0,0.1,0h4.7    c0.2,0,0.3,0.1,0.3,0.3c0,0,0,0,0,0.1c-0.7,3.5,1.5,6.8,4.9,7.6s6.8-1.5,7.6-4.9C30.9,9.6,30.1,7.2,28.3,5.7 M6.4,15.9    c-2.9,0-5.3-2.4-5.3-5.3s2.4-5.3,5.3-5.3c2.9,0,5.3,2.4,5.3,5.3l0,0C11.7,13.5,9.3,15.9,6.4,15.9 M24.2,15.9    c-2.9,0-5.3-2.4-5.3-5.3s2.4-5.3,5.3-5.3s5.3,2.4,5.3,5.3C29.5,13.5,27.1,15.9,24.2,15.9"></path>			<path d="M24,6.7c-1.7,0-3,1.3-3,3c0,0.1,0,0.2,0,0.3c0.2-0.8,1.4-1.3,3-1.3s2.8,0.6,3,1.3    c0-0.1,0-0.2,0-0.3C27,8.1,25.7,6.7,24,6.7"></path>		</g>	</g></g></svg>